# xmcd
#
# Track frame offsets:
#	150
#	15491
#	32173
#	52950
#	75683
#	125991
#	144068
#	167734
#	192453
#	229506
#	249111
#	273863
#	318254
#
# Disc length: 4774 seconds
#
# Revision: 0
# Processed by: cddbd v1.5.2PL0 Copyright (c) Steve Scherf et al.
# Submitted via: dBpowerAMP V4.0
#
DISCID=a012a40d
DTITLE=The Hoax - The Ladle Hotel,Middlesbrough,Cleveland,England. - 1995-02-06
DYEAR=1995
DGENRE=Bluesrock
TTITLE0=01 - Fistful Of Dirt
TTITLE1=02 - Lizard Like Me
TTITLE2=03 - Head,Neck
TTITLE3=04 - Scaramouche
TTITLE4=05 - Swallow My Pride
TTITLE5=06 - Wake Me Up
TTITLE6=07 - Take The Money And Run
TTITLE7=08 - Headless Chicken
TTITLE8=09 - Driving Blind
TTITLE9=10 - Look Before You Leap
TTITLE10=11 - Twenty Ton Weight
TTITLE11=12 - Sore Thumb
TTITLE12=13 - Much Too Much
EXTD=
EXTT0=
EXTT1=
EXTT2=
EXTT3=
EXTT4=
EXTT5=
EXTT6=
EXTT7=
EXTT8=
EXTT9=
EXTT10=
EXTT11=
EXTT12=
PLAYORDER=
